<?xml version="1.0" encoding="UTF-8"?>
<svg version="1.1" viewBox="0 0 100 100" xmlns="http://www.w3.org/2000/svg">
<defs>
<style>.st0, .st1 {
        fill: none;
      }

      .st2 {
        stroke-width: 4.8px;
      }

      .st2, .st1, .st3, .st4 {
        stroke: #000;
      }

      .st2, .st4 {
        fill: #4c2d53;
      }

      .st1, .st3, .st4 {
        stroke-linejoin: round;
        stroke-width: 2.6px;
      }

      .st3, .st5 {
        fill: #ebdfa1;
      }

      .st6 {
        clip-path: url(#a);
      }</style>
<clipPath id="a">
<rect class="st0" width="100" height="100"/>
</clipPath>
</defs>
<g class="st6">
<path class="st5" d="M50,97.4c26.2,0,47.4-21.2,47.4-47.4S76.2,2.6,50,2.6,2.6,23.8,2.6,50s21.2,47.4,47.4,47.4Z"/>
<path class="st5" d="M67.9,30.4h-35.8c-.9,0-1.7.8-1.7,1.7v35.8c0,.9.8,1.7,1.7,1.7h35.8c.9,0,1.7-.8,1.7-1.7v-35.8c0-.9-.8-1.7-1.7-1.7Z"/>
<path class="st5" d="M58.9,40.4h-17.6c-.5,0-.8.4-.8.8v17.6c0,.5.4.8.8.8h17.6c.5,0,.8-.4.8-.8v-17.6c0-.5-.4-.8-.8-.8Z"/>
<path class="st2" d="M50,97.4c26.2,0,47.4-21.2,47.4-47.4S76.2,2.6,50,2.6,2.6,23.8,2.6,50s21.2,47.4,47.4,47.4Z"/>
<path class="st3" d="M67.9,30.4h-35.8c-.9,0-1.7.8-1.7,1.7v35.8c0,.9.8,1.7,1.7,1.7h35.8c.9,0,1.7-.8,1.7-1.7v-35.8c0-.9-.8-1.7-1.7-1.7Z"/>
<path class="st4" d="M58.9,40.4h-17.6c-.5,0-.8.4-.8.8v17.6c0,.5.4.8.8.8h17.6c.5,0,.8-.4.8-.8v-17.6c0-.5-.4-.8-.8-.8Z"/>
<path class="st1" d="M50,97.4c26.2,0,47.4-21.2,47.4-47.4S76.2,2.6,50,2.6,2.6,23.8,2.6,50s21.2,47.4,47.4,47.4Z"/>
<path class="st1" d="M67.9,30.4h-35.8c-.9,0-1.7.8-1.7,1.7v35.8c0,.9.8,1.7,1.7,1.7h35.8c.9,0,1.7-.8,1.7-1.7v-35.8c0-.9-.8-1.7-1.7-1.7Z"/>
<path class="st1" d="M58.9,40.4h-17.6c-.5,0-.8.4-.8.8v17.6c0,.5.4.8.8.8h17.6c.5,0,.8-.4.8-.8v-17.6c0-.5-.4-.8-.8-.8Z"/>
</g>
</svg>
