<?xml version="1.0" encoding="UTF-8"?>
<svg width="100" height="100" fill="none" version="1.1" viewBox="0 0 100 100" xmlns="http://www.w3.org/2000/svg">
<g clip-path="url(#a)" stroke="#000">
<path d="m50 97.387c26.171 0 47.386-21.216 47.386-47.387s-21.216-47.387-47.386-47.387c-26.171 0-47.387 21.216-47.387 47.387s21.216 47.387 47.387 47.387z" fill="#666" stroke-width="5.2253"/>
<path d="m33.832 49.28c-9e-4 2.0651 0.4223 4.1101 1.2453 6.0182 0.823 1.908 2.0298 3.6417 3.5514 5.102 1.5215 1.4602 3.328 2.6184 5.3162 3.4082 1.9882 0.7899 4.1191 1.196 6.2709 1.1952 2.1511-3e-4 4.2811-0.4072 6.2682-1.1975 1.9872-0.7904 3.7927-1.9487 5.3133-3.4089 1.5207-1.4601 2.7267-3.1934 3.5491-5.1009 0.8225-1.9076 1.2454-3.9519 1.2445-6.0163-0.0087-3.1465-1.0013-6.2182-2.8494-8.8173-1.3521 2.4215-3.3164 4.4378-5.6925 5.8434-2.3761 1.4055-5.079 2.1499-7.8332 2.1574-2.7582-0.0085-5.4647-0.7562-7.8427-2.1665s-4.3422-3.4327-5.6917-5.8604c-1.8533 2.6065-2.8461 5.688-2.8494 8.8434z" fill="#ebdfa1" stroke-linecap="round" stroke-linejoin="round" stroke-width="2.62"/>
</g>
<defs>
<clipPath id="a">
<rect width="100" height="100" fill="#fff"/>
</clipPath>
</defs>
</svg>
