<?xml version="1.0" encoding="UTF-8"?>
<svg width="100" height="100" fill="none" version="1.1" viewBox="0 0 100 100" xmlns="http://www.w3.org/2000/svg">
<g clip-path="url(#a)" stroke="#000">
<path d="m50 97.387c26.171 0 47.387-21.216 47.387-47.387s-21.216-47.387-47.387-47.387-47.387 21.216-47.387 47.387 21.216 47.387 47.387 47.387z" fill="#333" stroke-width="5.2253"/>
<path d="m58.715 31.589c-12.456-4.1378-23.395-1.7672-28.788 3.0061-1.2877 1.1319-2.2039 2.2622-3.0609 3.7776-0.3579 0.6325-0.9278 1.9155-1.1421 2.5798-1.6829 7.0175-0.4124 11.772 4.2906 16.256 0.2893 0.2067 0.6595 0.4781 0.8239 0.6011 2.907 2.41 5.1008 2.6953 8.7347 3.0104 2.8334 0.0116 5.2602-0.722 8.1628-3.8795 6.6118-7.8288-5.3005-12.859-3.3067-19.037 0.9727-4.2432 8.7715-5.8767 14.286-6.3145z" fill="#ebdfa1" stroke-linecap="round" stroke-linejoin="round" stroke-width="2.6236"/>
<path d="m44.649 67.064c12.456 4.1378 23.395 1.7672 28.788-3.0061 1.2877-1.1319 2.2039-2.2622 3.0609-3.7776 0.3579-0.6325 0.9278-1.9155 1.1421-2.5798 1.6829-7.0175 0.4124-11.772-4.2906-16.256-0.2893-0.2067-0.6595-0.4781-0.8239-0.6011-2.907-2.41-5.1008-2.6953-8.7347-3.0104-2.8334-0.0116-5.2602 0.722-8.1628 3.8795-6.6118 7.8288 5.3005 12.859 3.3067 19.037-0.9727 4.2432-8.7715 5.8767-14.286 6.3145z" fill="#ebdfa1" stroke-linecap="round" stroke-linejoin="round" stroke-width="2.6236"/>
</g>
<defs>
<clipPath id="a">
<rect width="100" height="100" fill="#fff"/>
</clipPath>
</defs>
</svg>
