<?xml version="1.0" encoding="UTF-8"?>
<svg width="100" height="100" fill="none" viewBox="0 0 100 100" xmlns="http://www.w3.org/2000/svg">
<g clip-path="url(#a)" stroke="#000">
<path d="m50 97.387c26.171 0 47.386-21.216 47.386-47.387s-21.216-47.387-47.386-47.387c-26.171 0-47.387 21.216-47.387 47.387s21.216 47.387 47.387 47.387z" fill="#7C273B" stroke-width="5.2253"/>
<path d="m52.114 33.619c-2.0651-9e-4 -4.1101 0.4223-6.0182 1.2453-1.908 0.823-3.6417 2.0298-5.102 3.5514-1.4602 1.5215-2.6184 3.328-3.4082 5.3162-0.7899 1.9882-1.196 4.1191-1.1952 6.2709 3e-4 2.1511 0.4072 4.2811 1.1975 6.2682 0.7904 1.9872 1.9487 3.7927 3.4089 5.3133 1.4601 1.5207 3.1934 2.7267 5.1009 3.5491 1.9076 0.8225 3.9519 1.2454 6.0163 1.2445 3.1465-0.0087 6.2182-1.0013 8.8173-2.8494-2.4215-1.3521-4.4378-3.3164-5.8434-5.6925-1.4055-2.3761-2.1499-5.079-2.1574-7.8332 0.0085-2.7582 0.7562-5.4647 2.1665-7.8427s3.4327-4.3422 5.8604-5.6917c-2.6065-1.8533-5.688-2.8461-8.8434-2.8494z" fill="#EBDFA1" stroke-linecap="round" stroke-linejoin="round" stroke-width="2.62"/>
</g>
<defs>
<clipPath id="a">
<rect width="100" height="100" fill="#fff"/>
</clipPath>
</defs>
</svg>
