<?xml version="1.0" encoding="UTF-8"?>
<svg version="1.1" viewBox="0 0 100 100" xmlns="http://www.w3.org/2000/svg">
<defs>
<style>.st0 {
        fill: none;
      }

      .st1, .st2 {
        fill: #385471;
      }

      .st1, .st2, .st3 {
        stroke: #000;
      }

      .st1, .st3 {
        stroke-linejoin: round;
        stroke-width: 2.6px;
      }

      .st2 {
        stroke-width: 4.8px;
      }

      .st3 {
        fill: #ebdfa1;
      }

      .st4 {
        clip-path: url(#a);
      }</style>
<clipPath id="a">
<rect class="st0" width="100" height="100"/>
</clipPath>
</defs>
<g class="st4">
<path class="st2" d="M50,97.4c26.2,0,47.4-21.2,47.4-47.4S76.2,2.6,50,2.6,2.6,23.8,2.6,50s21.2,47.4,47.4,47.4Z"/>
<path class="st3" d="M48.8,23.4l-25.3,25.3c-.7.7-.7,1.8,0,2.4l25.3,25.3c.7.7,1.8.7,2.4,0l25.3-25.3c.7-.7.7-1.8,0-2.4l-25.3-25.3c-.7-.7-1.8-.7-2.4,0Z"/>
<path class="st1" d="M49.4,37l-12.4,12.4c-.3.3-.3.9,0,1.2l12.4,12.4c.3.3.9.3,1.2,0l12.4-12.4c.3-.3.3-.9,0-1.2l-12.4-12.4c-.3-.3-.9-.3-1.2,0Z"/>
</g>
</svg>
