<?xml version="1.0" encoding="UTF-8"?>
<svg version="1.1" viewBox="0 0 100 100" xmlns="http://www.w3.org/2000/svg">
<defs>
<style>.st0 {
        fill: none;
      }

      .st1 {
        fill: #9a4f38;
        stroke-width: 5.2px;
      }

      .st1, .st2 {
        stroke: #000;
      }

      .st2 {
        fill: #ebdfa1;
        stroke-linecap: round;
        stroke-linejoin: round;
        stroke-width: 2.6px;
      }

      .st3 {
        clip-path: url(#a);
      }</style>
<clipPath id="a">
<rect class="st0" width="100" height="100"/>
</clipPath>
</defs>
<g class="st3">
<path class="st1" d="M50,97.4c26.2,0,47.4-21.2,47.4-47.4S76.2,2.6,50,2.6,2.6,23.8,2.6,50s21.2,47.4,47.4,47.4Z"/>
<path class="st2" d="M67.8,38.9c-12.5-4.1-23.4-1.8-28.8,3-1.3,1.1-2.2,2.3-3.1,3.8-.4.6-.9,1.9-1.1,2.6-1.7,7-.4,11.8,4.3,16.3.3.2.7.5.8.6,2.9,2.4,5.1,2.7,8.7,3,2.8,0,5.3-.7,8.2-3.9,6.6-7.8-5.3-12.9-3.3-19,1-4.2,8.8-5.9,14.3-6.3Z"/>
</g>
</svg>
