<?xml version="1.0" encoding="UTF-8"?>
<svg version="1.1" viewBox="0 0 100 100" xmlns="http://www.w3.org/2000/svg">
<defs>
<style>.st0 {
        fill: none;
      }

      .st1 {
        fill: #ebdfa1;
      }

      .st1, .st2, .st3 {
        stroke: #000;
      }

      .st1, .st3 {
        stroke-miterlimit: 10;
        stroke-width: 2.6px;
      }

      .st2 {
        stroke-width: 4.8px;
      }

      .st2, .st3 {
        fill: #d16a26;
      }

      .st4 {
        clip-path: url(#a);
      }</style>
<clipPath id="a">
<rect class="st0" width="100" height="100"/>
</clipPath>
</defs>
<g class="st4">
<path class="st2" d="M50,97.4c26.2,0,47.4-21.2,47.4-47.4S76.2,2.6,50,2.6,2.6,23.8,2.6,50s21.2,47.4,47.4,47.4Z"/>
<path class="st1" d="m50 70.8c12.1 0 21.8-9.8 21.8-21.8s-9.8-21.8-21.8-21.8-21.8 9.8-21.8 21.8 9.8 21.8 21.8 21.8z"/>
<path class="st3" d="m50 58.9c5.5 0 9.9-4.4 9.9-9.9s-4.4-9.9-9.9-9.9-9.9 4.4-9.9 9.9 4.4 9.9 9.9 9.9z"/>
</g>
</svg>
