<?xml version="1.0" encoding="UTF-8"?>
<svg version="1.1" viewBox="0 0 100 100" xmlns="http://www.w3.org/2000/svg">
<defs>
<style>.st0 {
        fill: none;
      }

      .st1 {
        fill: #ebdfa1;
        fill-rule: evenodd;
        stroke-linejoin: round;
        stroke-width: 2.6px;
      }

      .st1, .st2 {
        stroke: #000;
      }

      .st2 {
        fill: #c35771;
        stroke-width: 5.2px;
      }

      .st3 {
        clip-path: url(#a);
      }</style>
<clipPath id="a">
<rect class="st0" width="100" height="100"/>
</clipPath>
</defs>
<g class="st3">
<path class="st2" d="M50,97.4c26.2,0,47.4-21.2,47.4-47.4S76.2,2.6,50,2.6,2.6,23.8,2.6,50s21.2,47.4,47.4,47.4Z"/>
<path class="st1" d="m38.2 40.4c-18.1 13-5.5 29.5 7.3 21.6 0 4.1-2.1 8.5-3.5 12.1h17.7c-1.3-3.7-4-8.1-4.1-12.1 13 7.5 23.4-9.2 6.3-21.6-7.9-7.4-9.5-12.3-11.4-15.2-5.8 7.9-6.1 9.1-12.3 15.2z"/>
</g>
</svg>
