<?xml version="1.0" encoding="UTF-8"?>
<svg version="1.1" viewBox="0 0 100 100" xmlns="http://www.w3.org/2000/svg">
<defs>
<style>.st0 {
        fill: none;
      }

      .st1 {
        fill: #ebdfa1;
        stroke-linejoin: round;
        stroke-width: 2.6px;
      }

      .st1, .st2 {
        stroke: #000;
      }

      .st3 {
        clip-path: url(#a);
      }

      .st2 {
        fill: #619f3e;
        stroke-width: 5.2px;
      }</style>
<clipPath id="a">
<rect class="st0" width="100" height="100"/>
</clipPath>
</defs>
<g class="st3">
<path class="st2" d="M50,97.4c26.2,0,47.4-21.2,47.4-47.4S76.2,2.6,50,2.6,2.6,23.8,2.6,50s21.2,47.4,47.4,47.4Z"/>
<path class="st1" d="M66.8,63.7c1,0,1.9-.8,1.9-1.9v-11.7c0-1-.8-1.9-1.9-1.9h-9.9v-11.3c0-.7-.6-1.3-1.3-1.3h-11.2c-.7,0-1.3.6-1.3,1.3v11.3h-9.9c-1,0-1.9.8-1.9,1.9v11.7c0,1,.8,1.9,1.9,1.9h33.7-.1Z"/>
</g>
</svg>
