<?xml version="1.0" encoding="UTF-8"?>
<svg version="1.1" viewBox="0 0 100 100" xmlns="http://www.w3.org/2000/svg">
<defs>
<style>.st0 {
        fill: none;
      }

      .st1 {
        fill: #ebdfa1;
        stroke-linejoin: round;
        stroke-width: 2.6px;
      }

      .st1, .st2 {
        stroke: #000;
      }

      .st2 {
        fill: #4f2326;
        stroke-width: 4.8px;
      }

      .st3 {
        clip-path: url(#a);
      }</style>
<clipPath id="a">
<rect class="st0" width="100" height="100"/>
</clipPath>
</defs>
<g class="st3">
<path class="st2" d="M50,97.4c26.2,0,47.4-21.2,47.4-47.4S76.2,2.6,50,2.6,2.6,23.8,2.6,50s21.2,47.4,47.4,47.4Z"/>
<path class="st1" d="M45.1,32.3c-.9,0-1.6.7-1.6,1.6v9.6h-9.6c-.9,0-1.6.7-1.6,1.6v9.8c0,.9.7,1.6,1.6,1.6h9.6v9.6c0,.9.7,1.6,1.6,1.6h9.8c.9,0,1.6-.7,1.6-1.6v-9.6h9.6c.9,0,1.6-.7,1.6-1.6v-9.8c0-.9-.7-1.6-1.6-1.6h-9.6v-9.6c0-.9-.7-1.6-1.6-1.6h-9.8Z"/>
</g>
</svg>
