<?xml version="1.0" encoding="UTF-8"?>
<svg version="1.1" viewBox="0 0 100 100" xmlns="http://www.w3.org/2000/svg">
<defs>
<style>.st0 {
        fill: none;
      }

      .st1 {
        fill: #c95a2c;
        stroke-width: 5.2px;
      }

      .st1, .st2 {
        stroke: #000;
      }

      .st2 {
        fill: #ebdfa1;
        stroke-linecap: round;
        stroke-linejoin: round;
        stroke-width: 2.6px;
      }

      .st3 {
        clip-path: url(#a);
      }</style>
<clipPath id="a">
<rect class="st0" width="100" height="100"/>
</clipPath>
</defs>
<g class="st3" clip-path="url(#a)">
<path class="st1" d="M50,97.4c26.2,0,47.4-21.2,47.4-47.4S76.2,2.6,50,2.6,2.6,23.8,2.6,50s21.2,47.4,47.4,47.4Z"/>
<path class="st2" d="m40.3 35.9h-0.6c-4.6 0.5-8.3 4-9.3 8.5-0.4 2-0.2 4.6 0.5 6.9 0.8 2.3 2.1 4.4 4.3 6.7 1.1 1.1 2 1.9 4.9 4.5 3.2 2.7 6.6 5.8 9 8.1l0.4 0.6h0.8s0.4-0.6 0.4-0.6c3.5-3.8 6.9-6.4 9.9-9.1 2.9-2.6 4.5-4.1 5.7-5.7 2-2.5 3-4.9 3.3-7.9v-2.6c-0.3-2.5-1.4-4.6-3.1-6.3s-3.9-2.8-6.3-3.1h-2.5c-2.3 0.3-4.3 1.2-5.9 2.7-0.8 0.6-1.2 1.4-1.8 2.1-1.7-2.8-5-3.9-7.6-4.8-0.5 0-1.7-0.1-2.1 0z"/>
</g>
</svg>
