<?xml version="1.0" encoding="UTF-8"?>
<svg version="1.1" viewBox="0 0 100 100" xmlns="http://www.w3.org/2000/svg">
<defs>
<style>.st0 {
        fill: none;
      }

      .st1 {
        fill: #4282bc;
        stroke-width: 5.2px;
      }

      .st1, .st2 {
        stroke: #000;
      }

      .st2 {
        fill: #ebdfa1;
        stroke-linecap: round;
        stroke-linejoin: round;
        stroke-width: 2.6px;
      }

      .st3 {
        clip-path: url(#a);
      }</style>
<clipPath id="a">
<rect class="st0" width="100" height="100"/>
</clipPath>
</defs>
<g class="st3">
<path class="st1" d="M50,97.4c26.2,0,47.4-21.2,47.4-47.4S76.2,2.6,50,2.6,2.6,23.8,2.6,50s21.2,47.4,47.4,47.4Z"/>
<path class="st2" d="M42.4,65.1c2.6-.9,5.9-2,7.6-4.8.6.7,1.1,1.5,1.8,2.1,1.7,1.5,3.7,2.4,5.9,2.7h2.5c2.5-.3,4.6-1.4,6.3-3.1,1.7-1.7,2.8-3.9,3.1-6.3v-2.6c-.3-2.9-1.3-5.3-3.3-7.9-1.2-1.6-2.7-3.1-5.7-5.7-3-2.7-6.4-5.3-9.9-9.1l-.4-.6h-.8l-.4.6c-2.4,2.2-5.8,5.4-9,8.1-2.9,2.6-3.8,3.4-4.9,4.5-2.2,2.3-3.5,4.4-4.3,6.7-.7,2.2-.9,4.8-.5,6.9.9,4.5,4.7,8,9.3,8.5h2.7Z"/>
</g>
</svg>
