<?xml version="1.0" encoding="UTF-8"?>
<svg version="1.1" viewBox="0 0 100 100" xmlns="http://www.w3.org/2000/svg">
<defs>
<style>.st0 {
        fill: none;
      }

      .st1 {
        fill: #ebdfa1;
        stroke-linecap: round;
        stroke-linejoin: round;
        stroke-width: 2.6px;
      }

      .st1, .st2 {
        stroke: #000;
      }

      .st3 {
        clip-path: url(#a);
      }

      .st2 {
        fill: #2c2e56;
        stroke-width: 5.2px;
      }</style>
<clipPath id="a">
<rect class="st0" width="100" height="100"/>
</clipPath>
</defs>
<g class="st3">
<path class="st2" d="M50,97.4c26.2,0,47.4-21.2,47.4-47.4S76.2,2.6,50,2.6,2.6,23.8,2.6,50s21.2,47.4,47.4,47.4Z"/>
<path class="st1" d="m36.4 36.5c2.4 1.3 4.5 3.3 5.9 5.7s2.2 5.1 2.2 7.8c0 2.8-0.8 5.5-2.2 7.8-1.4 2.4-3.4 4.3-5.8 5.7 2.6 1.8 5.7 2.8 8.8 2.8 2.1 0 4.1-0.4 6-1.2s3.6-2 5.1-3.5 2.6-3.3 3.4-5.3 1.2-4.1 1.2-6.3-0.4-4.3-1.2-6.3-1.9-3.8-3.4-5.3-3.2-2.7-5.1-3.6c-1.9-0.8-4-1.2-6-1.2-3.2 0-6.2 1-8.8 2.8z"/>
</g>
</svg>
