<?xml version="1.0" encoding="UTF-8"?>
<svg version="1.1" viewBox="0 0 100 100" xmlns="http://www.w3.org/2000/svg">
<defs>
<style>.st0 {
        fill: none;
      }

      .st1 {
        fill: #177c75;
        stroke-width: 5.2px;
      }

      .st1, .st2 {
        stroke: #000;
      }

      .st2 {
        fill: #ebdfa1;
        stroke-linejoin: round;
        stroke-width: 2.6px;
      }

      .st3 {
        clip-path: url(#a);
      }</style>
<clipPath id="a">
<rect class="st0" width="100" height="100"/>
</clipPath>
</defs>
<g class="st3">
<path class="st1" d="M50,97.4c26.2,0,47.4-21.2,47.4-47.4S76.2,2.6,50,2.6,2.6,23.8,2.6,50s21.2,47.4,47.4,47.4Z"/>
<path class="st2" d="m53.9 34.2c-1.7 1-3.1 2.3-4 4-1-1.7-2.4-3.1-4-4-1.7-1-3.6-1.5-5.5-1.5-2.9 0-5.7 1.2-7.8 3.2-2.1 2.1-3.2 4.9-3.2 7.8s1.1 5.6 3.1 7.7 4.7 3.2 7.6 3.3c-0.7 1.5-1.1 3.1-1.1 4.7 0 2.9 1.2 5.7 3.2 7.8 2.1 2.1 4.9 3.2 7.8 3.2s5.7-1.2 7.8-3.2c2.1-2.1 3.2-4.9 3.2-7.8 0-1.6-0.4-3.3-1.1-4.8 2.8-0.1 5.5-1.4 7.4-3.4s3-4.8 3-7.6c0-1.4-0.3-2.9-0.8-4.2-0.6-1.3-1.4-2.6-2.4-3.6s-2.2-1.8-3.6-2.4-2.8-0.8-4.2-0.8c-1.9 0-3.8 0.5-5.5 1.5z"/>
</g>
</svg>
