<?xml version="1.0" encoding="UTF-8"?>
<svg version="1.1" viewBox="0 0 100 100" xmlns="http://www.w3.org/2000/svg">
<defs>
<style>.st0 {
        fill: none;
      }

      .st1 {
        fill: #9a4f38;
      }

      .st1, .st2 {
        stroke-width: 5.2px;
      }

      .st1, .st2, .st3 {
        stroke: #000;
      }

      .st4 {
        clip-path: url(#a);
      }

      .st2 {
        fill: #9a3c63;
      }

      .st3 {
        fill: #ebdfa1;
        stroke-linecap: round;
        stroke-linejoin: round;
        stroke-width: 2.6px;
      }

      .st5 {
        opacity: 0;
      }

      .st6 {
        clip-path: url(#b);
      }</style>
<clipPath id="b">
<rect class="st0" width="100" height="100"/>
</clipPath>
<clipPath id="a">
<rect class="st0" y=".5" width="100" height="100"/>
</clipPath>
</defs>
<g class="st6">
<path class="st2" d="M50,97.4c26.2,0,47.4-21.2,47.4-47.4S76.2,2.6,50,2.6,2.6,23.8,2.6,50s21.2,47.4,47.4,47.4Z"/>
<path class="st3" d="M46.4,56.7c2-6.2-9.9-11.2-3.3-19,2.9-3.2,5.3-3.9,8.2-3.9,3.6.3,5.8.6,8.7,3,.2.1.5.4.8.6,4.7,4.5,6,9.2,4.3,16.3-.2.7-.8,1.9-1.1,2.6-.9,1.5-1.8,2.6-3.1,3.8-5.4,4.8-16.3,7.1-28.8,3,5.5-.4,13.3-2.1,14.3-6.3Z"/>
</g>
<g class="st5">
<g class="st4">
<path class="st1" d="M50,97.9c26.2,0,47.4-21.2,47.4-47.4S76.2,3.1,50,3.1,2.6,24.3,2.6,50.5s21.2,47.4,47.4,47.4Z"/>
<path class="st3" d="M67.8,39.4c-12.5-4.1-23.4-1.8-28.8,3-1.3,1.1-2.2,2.3-3.1,3.8-.4.6-.9,1.9-1.1,2.6-1.7,7-.4,11.8,4.3,16.3.3.2.7.5.8.6,2.9,2.4,5.1,2.7,8.7,3,2.8,0,5.3-.7,8.2-3.9,6.6-7.8-5.3-12.9-3.3-19,1-4.2,8.8-5.9,14.3-6.3Z"/>
</g>
</g>
</svg>
